<svg xmlns="http://www.w3.org/2000/svg" viewBox="0 0 512 512" role="img" aria-label="EverShine Academy App Icon">
  <defs>
    <linearGradient id="appIconBg" x1="0" y1="0" x2="1" y2="1">
      <stop offset="0%" stop-color="#1D4ED8" />
      <stop offset="100%" stop-color="#0F172A" />
    </linearGradient>
  </defs>
  <rect width="512" height="512" rx="112" fill="url(#appIconBg)" />
  <g transform="translate(128 96) scale(1.2)">
    <g fill="none" stroke="#F59E0B" stroke-width="16" stroke-linecap="round">
      <path d="M 225 74 C 182 122 140 184 118 244" />
      <path d="M 415 74 C 458 122 500 184 522 244" />
      <path d="M 98 284 C 122 344 156 384 194 414" />
      <path d="M 542 284 C 518 344 484 384 446 414" />
    </g>
    <path d="M 120 180 C 120 140 160 110 250 110 C 340 110 380 140 380 180 C 380 240 360 280 360 310 C 360 380 310 450 250 490 C 190 450 140 380 140 310 C 140 280 120 240 120 180 Z"
      fill="#ffffff" stroke="#ffffff" stroke-width="18" stroke-linejoin="round" />
    <g transform="translate(250 200)">
      <path d="M -60 0 L 0 -24 L 60 0 L 0 24 Z" fill="#1D4ED8" />
      <path d="M -80 20 Q -60 -8 0 -28 Q 60 -8 80 20 Q 70 40 60 40 Q 50 40 45 32 Q 38 24 30 22 Q 22 20 14 20 Q 2 20 -2 28 Q -8 34 -16 34 Q -24 34 -32 26 Q -40 18 -50 18 Q -70 18 -80 20 Z" fill="#1D4ED8" />
      <path d="M -10 0 L 10 0 L 10 100 L -10 100 Z" fill="#1D4ED8" />
      <circle cx="0" cy="68" r="8" fill="#ffffff" />
    </g>
  </g>
</svg>
