<svg xmlns="http://www.w3.org/2000/svg" viewBox="0 0 320 320" role="img" aria-label="Evershine Academy Icon Logo">
  <title>Evershine Academy Icon Logo</title>
  <defs>
    <linearGradient id="shieldGradientIcon" x1="0" y1="0" x2="0" y2="1">
      <stop offset="0%" stopColor="#ffffff" />
      <stop offset="100%" stopColor="#f8fafc" />
    </linearGradient>
    <path id="starIcon" d="M 0,-9 L 2.5,-2.5 L 9,-2.5 L 3.5 1.5 L 5.5 9 L 0 4.5 L -5.5 9 L -3.5 1.5 L -9,-2.5 L -2.5,-2.5 Z" />
  </defs>

  <rect width="320" height="320" fill="transparent" />

  <g fill="none" stroke="#F59E0B" strokeWidth="8" strokeLinecap="round">
    <path d="M 106 38 C 86 61 69 92 58 122" />
    <path d="M 214 38 C 234 61 251 92 262 122" />
    <path d="M 44 148 C 54 168 69 183 86 196" />
    <path d="M 276 148 C 266 168 251 183 234 196" />
  </g>

  <g fill="#FBBF24" transform="translate(160 40)">
    <use href="#starIcon" transform="translate(-34 0)" />
    <use href="#starIcon" transform="translate(0 -8)" />
    <use href="#starIcon" transform="translate(34 0)" />
  </g>

  <path d="M 60 90 C 60 72 80 58 125 58 C 170 58 190 72 190 90 C 190 120 180 140 180 155 C 180 190 160 225 125 245 C 90 225 70 190 70 155 C 70 140 60 120 60 90 Z"
        fill="url(#shieldGradientIcon)"
        stroke="#DC2626"
        strokeWidth="11"
        strokeLinejoin="round" />

  <g transform="translate(125 135) scale(0.6)">
    <path d="M -40 0 L 0 -16 L 40 0 L 0 16 Z" fill="#1D4ED8" />
    <path d="M -52 14 Q -40 -4 0 -14 Q 40 -4 52 14 Q 46 28 40 28 Q 34 28 30 25 Q 25 22 20 21 Q 15 20 10 20 Q 2 20 -2 28 Q -6 32 -12 32 Q -18 32 -24 26 Q -30 20 -38 20 Q -52 20 -52 14 Z"
          fill="#1D4ED8" />
    <path d="M -8 0 L 8 0 L 8 50 L -8 50 Z" fill="#1D4ED8" />
    <circle cx="0" cy="34" r="5" fill="#ffffff" />
  </g>
</svg>
